# xmcd
# 
# Track frame offsets:
#     183
#     33118
#     73595
#     106158
#     141600
#     180040
# 
# Disc length: 2713
# 
# Revision: 18
# Processed by: cddbd v1.5.2PL0 Copyright (c) Steve Scherf et al.
# Submitted via: fre:ac v1.0.31
# 
DISCID=470a9706
DTITLE=Keith Jarrett - Standards, Disc .2
DYEAR=1985
DGENRE=Jazz
TTITLE0=So Tender
TTITLE1=Moon And Sand
TTITLE2=In Love In Vain
TTITLE3=Never Let Me Go
TTITLE4=If I Should Lose You
TTITLE5=I Fall In Love Too Easily
EXTD=Keith Jarrett - Piano\nGary Peacock - Bass\nJack DeJohnette - Drums YEAR: 1985
EXTT0=
EXTT1=
EXTT2=
EXTT3=
EXTT4=
EXTT5=
PLAYORDER=
